<mxfile host="app.diagrams.net" modified="2022-02-28T21:00:59.690Z" agent="5.0 (X11; Linux x86_64) AppleWebKit/537.36 (KHTML, like Gecko) Chrome/98.0.4758.80 Safari/537.36" etag="DRwS8fVgaruAZBwFI82e" version="16.6.4" type="github">
  <diagram id="C5RBs43oDa-KdzZeNtuy" name="Page-1">
    <mxGraphModel dx="1296" dy="1615" grid="1" gridSize="10" guides="1" tooltips="1" connect="1" arrows="1" fold="1" page="1" pageScale="1" pageWidth="1169" pageHeight="827" math="0" shadow="0">
      <root>
        <mxCell id="WIyWlLk6GJQsqaUBKTNV-0" />
        <mxCell id="WIyWlLk6GJQsqaUBKTNV-1" parent="WIyWlLk6GJQsqaUBKTNV-0" />
        <mxCell id="WIyWlLk6GJQsqaUBKTNV-2" value="" style="rounded=0;html=1;jettySize=auto;orthogonalLoop=1;fontSize=11;endArrow=none;endFill=0;endSize=8;strokeWidth=1;shadow=0;labelBackgroundColor=none;edgeStyle=orthogonalEdgeStyle;" parent="WIyWlLk6GJQsqaUBKTNV-1" source="WIyWlLk6GJQsqaUBKTNV-3" target="WIyWlLk6GJQsqaUBKTNV-6" edge="1">
          <mxGeometry relative="1" as="geometry" />
        </mxCell>
        <mxCell id="WIyWlLk6GJQsqaUBKTNV-3" value="Departement" style="rounded=1;whiteSpace=wrap;html=1;fontSize=12;glass=0;strokeWidth=1;shadow=0;" parent="WIyWlLk6GJQsqaUBKTNV-1" vertex="1">
          <mxGeometry x="976" y="65" width="120" height="40" as="geometry" />
        </mxCell>
        <mxCell id="WIyWlLk6GJQsqaUBKTNV-4" value="Yes" style="rounded=0;html=1;jettySize=auto;orthogonalLoop=1;fontSize=11;endArrow=none;endFill=0;endSize=8;strokeWidth=1;shadow=0;labelBackgroundColor=none;edgeStyle=orthogonalEdgeStyle;" parent="WIyWlLk6GJQsqaUBKTNV-1" source="WIyWlLk6GJQsqaUBKTNV-6" target="NJJ9FSpXdGlF9qKQExcH-1" edge="1">
          <mxGeometry y="20" relative="1" as="geometry">
            <mxPoint as="offset" />
            <mxPoint x="1036" y="448" as="targetPoint" />
          </mxGeometry>
        </mxCell>
        <mxCell id="WIyWlLk6GJQsqaUBKTNV-6" value="controle" style="rhombus;whiteSpace=wrap;html=1;shadow=0;fontFamily=Helvetica;fontSize=12;align=center;strokeWidth=1;spacing=6;spacingTop=-4;" parent="WIyWlLk6GJQsqaUBKTNV-1" vertex="1">
          <mxGeometry x="936" y="258" width="100" height="80" as="geometry" />
        </mxCell>
        <mxCell id="NJJ9FSpXdGlF9qKQExcH-59" value="" style="rounded=0;orthogonalLoop=1;jettySize=auto;html=1;fontSize=15;startArrow=none;startFill=0;endArrow=none;endFill=0;" edge="1" parent="WIyWlLk6GJQsqaUBKTNV-1" source="NJJ9FSpXdGlF9qKQExcH-1" target="NJJ9FSpXdGlF9qKQExcH-10">
          <mxGeometry relative="1" as="geometry" />
        </mxCell>
        <mxCell id="NJJ9FSpXdGlF9qKQExcH-60" value="" style="rounded=0;orthogonalLoop=1;jettySize=auto;html=1;fontSize=15;startArrow=none;startFill=0;endArrow=none;endFill=0;" edge="1" parent="WIyWlLk6GJQsqaUBKTNV-1" source="NJJ9FSpXdGlF9qKQExcH-1" target="NJJ9FSpXdGlF9qKQExcH-12">
          <mxGeometry relative="1" as="geometry" />
        </mxCell>
        <mxCell id="NJJ9FSpXdGlF9qKQExcH-61" value="" style="rounded=0;orthogonalLoop=1;jettySize=auto;html=1;fontSize=15;startArrow=none;startFill=0;endArrow=none;endFill=0;" edge="1" parent="WIyWlLk6GJQsqaUBKTNV-1" source="NJJ9FSpXdGlF9qKQExcH-1" target="NJJ9FSpXdGlF9qKQExcH-13">
          <mxGeometry relative="1" as="geometry" />
        </mxCell>
        <mxCell id="NJJ9FSpXdGlF9qKQExcH-1" value="Projet" style="whiteSpace=wrap;html=1;aspect=fixed;" vertex="1" parent="WIyWlLk6GJQsqaUBKTNV-1">
          <mxGeometry x="856" y="500" width="78" height="78" as="geometry" />
        </mxCell>
        <mxCell id="NJJ9FSpXdGlF9qKQExcH-63" value="" style="edgeStyle=none;rounded=0;orthogonalLoop=1;jettySize=auto;html=1;fontSize=15;startArrow=none;startFill=0;endArrow=none;endFill=0;" edge="1" parent="WIyWlLk6GJQsqaUBKTNV-1" source="NJJ9FSpXdGlF9qKQExcH-3" target="NJJ9FSpXdGlF9qKQExcH-1">
          <mxGeometry relative="1" as="geometry" />
        </mxCell>
        <mxCell id="NJJ9FSpXdGlF9qKQExcH-3" value="" style="ellipse;whiteSpace=wrap;html=1;" vertex="1" parent="WIyWlLk6GJQsqaUBKTNV-1">
          <mxGeometry x="1016" y="472" width="120" height="50" as="geometry" />
        </mxCell>
        <mxCell id="NJJ9FSpXdGlF9qKQExcH-10" value="nom_projet" style="ellipse;whiteSpace=wrap;html=1;" vertex="1" parent="WIyWlLk6GJQsqaUBKTNV-1">
          <mxGeometry x="934" y="420" width="120" height="50" as="geometry" />
        </mxCell>
        <mxCell id="NJJ9FSpXdGlF9qKQExcH-12" value="" style="ellipse;whiteSpace=wrap;html=1;" vertex="1" parent="WIyWlLk6GJQsqaUBKTNV-1">
          <mxGeometry x="1036" y="532" width="120" height="50" as="geometry" />
        </mxCell>
        <mxCell id="NJJ9FSpXdGlF9qKQExcH-13" value="" style="ellipse;whiteSpace=wrap;html=1;" vertex="1" parent="WIyWlLk6GJQsqaUBKTNV-1">
          <mxGeometry x="960" y="656" width="120" height="50" as="geometry" />
        </mxCell>
        <mxCell id="NJJ9FSpXdGlF9qKQExcH-64" value="" style="edgeStyle=none;rounded=0;orthogonalLoop=1;jettySize=auto;html=1;fontSize=15;startArrow=none;startFill=0;endArrow=none;endFill=0;" edge="1" parent="WIyWlLk6GJQsqaUBKTNV-1" source="NJJ9FSpXdGlF9qKQExcH-14" target="NJJ9FSpXdGlF9qKQExcH-1">
          <mxGeometry relative="1" as="geometry" />
        </mxCell>
        <mxCell id="NJJ9FSpXdGlF9qKQExcH-14" value="" style="ellipse;whiteSpace=wrap;html=1;" vertex="1" parent="WIyWlLk6GJQsqaUBKTNV-1">
          <mxGeometry x="840" y="695" width="120" height="50" as="geometry" />
        </mxCell>
        <mxCell id="NJJ9FSpXdGlF9qKQExcH-17" value="" style="rounded=0;html=1;jettySize=auto;orthogonalLoop=1;fontSize=11;endArrow=none;endFill=0;endSize=8;strokeWidth=1;shadow=0;labelBackgroundColor=none;edgeStyle=orthogonalEdgeStyle;exitX=1;exitY=0.5;exitDx=0;exitDy=0;" edge="1" parent="WIyWlLk6GJQsqaUBKTNV-1" source="NJJ9FSpXdGlF9qKQExcH-41" target="NJJ9FSpXdGlF9qKQExcH-20">
          <mxGeometry relative="1" as="geometry">
            <mxPoint x="630" y="512" as="sourcePoint" />
          </mxGeometry>
        </mxCell>
        <mxCell id="NJJ9FSpXdGlF9qKQExcH-20" value="dirige" style="rhombus;whiteSpace=wrap;html=1;shadow=0;fontFamily=Helvetica;fontSize=12;align=center;strokeWidth=1;spacing=6;spacingTop=-4;" vertex="1" parent="WIyWlLk6GJQsqaUBKTNV-1">
          <mxGeometry x="550" y="452" width="100" height="80" as="geometry" />
        </mxCell>
        <mxCell id="NJJ9FSpXdGlF9qKQExcH-54" value="" style="edgeStyle=orthogonalEdgeStyle;rounded=0;orthogonalLoop=1;jettySize=auto;html=1;fontSize=15;startArrow=none;startFill=0;endArrow=none;endFill=0;" edge="1" parent="WIyWlLk6GJQsqaUBKTNV-1" source="NJJ9FSpXdGlF9qKQExcH-21" target="NJJ9FSpXdGlF9qKQExcH-51">
          <mxGeometry relative="1" as="geometry" />
        </mxCell>
        <mxCell id="NJJ9FSpXdGlF9qKQExcH-21" value="taux horaire" style="ellipse;whiteSpace=wrap;html=1;" vertex="1" parent="WIyWlLk6GJQsqaUBKTNV-1">
          <mxGeometry x="390" y="606" width="100" height="50" as="geometry" />
        </mxCell>
        <mxCell id="NJJ9FSpXdGlF9qKQExcH-57" value="" style="edgeStyle=orthogonalEdgeStyle;rounded=0;orthogonalLoop=1;jettySize=auto;html=1;fontSize=15;startArrow=none;startFill=0;endArrow=none;endFill=0;" edge="1" parent="WIyWlLk6GJQsqaUBKTNV-1" source="NJJ9FSpXdGlF9qKQExcH-24" target="NJJ9FSpXdGlF9qKQExcH-29">
          <mxGeometry relative="1" as="geometry" />
        </mxCell>
        <mxCell id="NJJ9FSpXdGlF9qKQExcH-58" value="" style="edgeStyle=orthogonalEdgeStyle;rounded=0;orthogonalLoop=1;jettySize=auto;html=1;fontSize=15;startArrow=none;startFill=0;endArrow=none;endFill=0;" edge="1" parent="WIyWlLk6GJQsqaUBKTNV-1" source="NJJ9FSpXdGlF9qKQExcH-24" target="NJJ9FSpXdGlF9qKQExcH-26">
          <mxGeometry relative="1" as="geometry" />
        </mxCell>
        <mxCell id="NJJ9FSpXdGlF9qKQExcH-24" value="employÃ©" style="rounded=1;whiteSpace=wrap;html=1;fontSize=12;glass=0;strokeWidth=1;shadow=0;" vertex="1" parent="WIyWlLk6GJQsqaUBKTNV-1">
          <mxGeometry x="60" y="170" width="120" height="40" as="geometry" />
        </mxCell>
        <mxCell id="NJJ9FSpXdGlF9qKQExcH-25" value="Yes" style="rounded=0;html=1;jettySize=auto;orthogonalLoop=1;fontSize=11;endArrow=none;endFill=0;endSize=8;strokeWidth=1;shadow=0;labelBackgroundColor=none;edgeStyle=orthogonalEdgeStyle;entryX=0;entryY=0.5;entryDx=0;entryDy=0;" edge="1" parent="WIyWlLk6GJQsqaUBKTNV-1" source="NJJ9FSpXdGlF9qKQExcH-26" target="WIyWlLk6GJQsqaUBKTNV-3">
          <mxGeometry y="20" relative="1" as="geometry">
            <mxPoint as="offset" />
            <mxPoint x="130" y="550" as="targetPoint" />
          </mxGeometry>
        </mxCell>
        <mxCell id="NJJ9FSpXdGlF9qKQExcH-26" value="travaille" style="rhombus;whiteSpace=wrap;html=1;shadow=0;fontFamily=Helvetica;fontSize=12;align=center;strokeWidth=1;spacing=6;spacingTop=-4;" vertex="1" parent="WIyWlLk6GJQsqaUBKTNV-1">
          <mxGeometry x="70" y="45" width="100" height="80" as="geometry" />
        </mxCell>
        <mxCell id="NJJ9FSpXdGlF9qKQExcH-27" value="" style="ellipse;whiteSpace=wrap;html=1;" vertex="1" parent="WIyWlLk6GJQsqaUBKTNV-1">
          <mxGeometry x="1010" y="590" width="120" height="50" as="geometry" />
        </mxCell>
        <mxCell id="NJJ9FSpXdGlF9qKQExcH-28" value="" style="endArrow=none;html=1;rounded=0;entryX=1;entryY=1;entryDx=0;entryDy=0;exitX=0;exitY=0.5;exitDx=0;exitDy=0;" edge="1" parent="WIyWlLk6GJQsqaUBKTNV-1" source="NJJ9FSpXdGlF9qKQExcH-27" target="NJJ9FSpXdGlF9qKQExcH-1">
          <mxGeometry width="50" height="50" relative="1" as="geometry">
            <mxPoint x="-40" y="600" as="sourcePoint" />
            <mxPoint x="170" y="570" as="targetPoint" />
          </mxGeometry>
        </mxCell>
        <mxCell id="NJJ9FSpXdGlF9qKQExcH-29" value="&lt;font style=&quot;font-size: 14px ; line-height: 1&quot;&gt;is A&lt;/font&gt;" style="triangle;whiteSpace=wrap;html=1;rotation=90;" vertex="1" parent="WIyWlLk6GJQsqaUBKTNV-1">
          <mxGeometry x="90" y="257" width="60" height="80" as="geometry" />
        </mxCell>
        <mxCell id="NJJ9FSpXdGlF9qKQExcH-35" value="&lt;font style=&quot;font-size: 15px&quot;&gt;expert&lt;/font&gt;" style="rounded=1;whiteSpace=wrap;html=1;fontSize=12;glass=0;strokeWidth=1;shadow=0;" vertex="1" parent="WIyWlLk6GJQsqaUBKTNV-1">
          <mxGeometry x="10" y="380" width="120" height="40" as="geometry" />
        </mxCell>
        <mxCell id="NJJ9FSpXdGlF9qKQExcH-36" value="employe fonctionnaire" style="rounded=1;whiteSpace=wrap;html=1;fontSize=12;glass=0;strokeWidth=1;shadow=0;" vertex="1" parent="WIyWlLk6GJQsqaUBKTNV-1">
          <mxGeometry x="190" y="278" width="120" height="40" as="geometry" />
        </mxCell>
        <mxCell id="NJJ9FSpXdGlF9qKQExcH-37" value="&lt;font style=&quot;font-size: 14px ; line-height: 1&quot;&gt;is A&lt;/font&gt;" style="triangle;whiteSpace=wrap;html=1;rotation=90;" vertex="1" parent="WIyWlLk6GJQsqaUBKTNV-1">
          <mxGeometry x="220" y="340" width="60" height="80" as="geometry" />
        </mxCell>
        <mxCell id="NJJ9FSpXdGlF9qKQExcH-40" value="&lt;font style=&quot;font-size: 15px&quot;&gt;employe&lt;/font&gt;" style="rounded=1;whiteSpace=wrap;html=1;fontSize=12;glass=0;strokeWidth=1;shadow=0;" vertex="1" parent="WIyWlLk6GJQsqaUBKTNV-1">
          <mxGeometry x="190" y="700" width="120" height="40" as="geometry" />
        </mxCell>
        <mxCell id="NJJ9FSpXdGlF9qKQExcH-41" value="chef de projet" style="rounded=1;whiteSpace=wrap;html=1;fontSize=12;glass=0;strokeWidth=1;shadow=0;" vertex="1" parent="WIyWlLk6GJQsqaUBKTNV-1">
          <mxGeometry x="320" y="472" width="120" height="40" as="geometry" />
        </mxCell>
        <mxCell id="NJJ9FSpXdGlF9qKQExcH-44" value="" style="endArrow=none;startArrow=none;html=1;rounded=0;fontSize=15;exitX=0.5;exitY=0;exitDx=0;exitDy=0;entryX=0;entryY=0.5;entryDx=0;entryDy=0;startFill=0;endFill=0;" edge="1" parent="WIyWlLk6GJQsqaUBKTNV-1" source="NJJ9FSpXdGlF9qKQExcH-29" target="NJJ9FSpXdGlF9qKQExcH-36">
          <mxGeometry width="50" height="50" relative="1" as="geometry">
            <mxPoint x="600" y="400" as="sourcePoint" />
            <mxPoint x="650" y="350" as="targetPoint" />
          </mxGeometry>
        </mxCell>
        <mxCell id="NJJ9FSpXdGlF9qKQExcH-45" value="" style="endArrow=none;html=1;rounded=0;fontSize=15;entryX=0.5;entryY=1;entryDx=0;entryDy=0;exitX=0.5;exitY=0;exitDx=0;exitDy=0;" edge="1" parent="WIyWlLk6GJQsqaUBKTNV-1" source="NJJ9FSpXdGlF9qKQExcH-35" target="NJJ9FSpXdGlF9qKQExcH-29">
          <mxGeometry width="50" height="50" relative="1" as="geometry">
            <mxPoint x="50" y="380" as="sourcePoint" />
            <mxPoint x="60" y="312" as="targetPoint" />
            <Array as="points">
              <mxPoint x="70" y="297" />
            </Array>
          </mxGeometry>
        </mxCell>
        <mxCell id="NJJ9FSpXdGlF9qKQExcH-46" value="" style="endArrow=none;html=1;rounded=0;fontSize=15;exitX=0.5;exitY=0;exitDx=0;exitDy=0;entryX=0;entryY=0.5;entryDx=0;entryDy=0;" edge="1" parent="WIyWlLk6GJQsqaUBKTNV-1" source="NJJ9FSpXdGlF9qKQExcH-37" target="NJJ9FSpXdGlF9qKQExcH-41">
          <mxGeometry width="50" height="50" relative="1" as="geometry">
            <mxPoint x="600" y="492" as="sourcePoint" />
            <mxPoint x="650" y="442" as="targetPoint" />
          </mxGeometry>
        </mxCell>
        <mxCell id="NJJ9FSpXdGlF9qKQExcH-47" value="" style="endArrow=none;html=1;rounded=0;fontSize=15;exitX=1;exitY=0.5;exitDx=0;exitDy=0;entryX=0.5;entryY=0;entryDx=0;entryDy=0;" edge="1" parent="WIyWlLk6GJQsqaUBKTNV-1" source="NJJ9FSpXdGlF9qKQExcH-37" target="NJJ9FSpXdGlF9qKQExcH-40">
          <mxGeometry width="50" height="50" relative="1" as="geometry">
            <mxPoint x="600" y="492" as="sourcePoint" />
            <mxPoint x="650" y="442" as="targetPoint" />
          </mxGeometry>
        </mxCell>
        <mxCell id="NJJ9FSpXdGlF9qKQExcH-48" value="" style="endArrow=none;html=1;rounded=0;fontSize=15;entryX=1;entryY=0.5;entryDx=0;entryDy=0;exitX=0;exitY=0.25;exitDx=0;exitDy=0;edgeStyle=orthogonalEdgeStyle;" edge="1" parent="WIyWlLk6GJQsqaUBKTNV-1" source="NJJ9FSpXdGlF9qKQExcH-1" target="NJJ9FSpXdGlF9qKQExcH-20">
          <mxGeometry width="50" height="50" relative="1" as="geometry">
            <mxPoint x="530" y="450" as="sourcePoint" />
            <mxPoint x="580" y="400" as="targetPoint" />
          </mxGeometry>
        </mxCell>
        <mxCell id="NJJ9FSpXdGlF9qKQExcH-49" value="participe" style="rhombus;whiteSpace=wrap;html=1;shadow=0;fontFamily=Helvetica;fontSize=12;align=center;strokeWidth=1;spacing=6;spacingTop=-4;" vertex="1" parent="WIyWlLk6GJQsqaUBKTNV-1">
          <mxGeometry x="550" y="680" width="100" height="80" as="geometry" />
        </mxCell>
        <mxCell id="NJJ9FSpXdGlF9qKQExcH-50" value="" style="endArrow=none;html=1;rounded=0;fontSize=15;entryX=1;entryY=0.5;entryDx=0;entryDy=0;exitX=0;exitY=0.75;exitDx=0;exitDy=0;edgeStyle=orthogonalEdgeStyle;" edge="1" parent="WIyWlLk6GJQsqaUBKTNV-1" target="NJJ9FSpXdGlF9qKQExcH-49" source="NJJ9FSpXdGlF9qKQExcH-1">
          <mxGeometry width="50" height="50" relative="1" as="geometry">
            <mxPoint x="856" y="826" as="sourcePoint" />
            <mxPoint x="580" y="708" as="targetPoint" />
          </mxGeometry>
        </mxCell>
        <mxCell id="NJJ9FSpXdGlF9qKQExcH-55" value="" style="edgeStyle=orthogonalEdgeStyle;rounded=0;orthogonalLoop=1;jettySize=auto;html=1;fontSize=15;startArrow=none;startFill=0;endArrow=none;endFill=0;" edge="1" parent="WIyWlLk6GJQsqaUBKTNV-1" source="NJJ9FSpXdGlF9qKQExcH-51" target="NJJ9FSpXdGlF9qKQExcH-49">
          <mxGeometry relative="1" as="geometry" />
        </mxCell>
        <mxCell id="NJJ9FSpXdGlF9qKQExcH-56" value="" style="edgeStyle=orthogonalEdgeStyle;rounded=0;orthogonalLoop=1;jettySize=auto;html=1;fontSize=15;startArrow=none;startFill=0;endArrow=none;endFill=0;" edge="1" parent="WIyWlLk6GJQsqaUBKTNV-1" source="NJJ9FSpXdGlF9qKQExcH-51" target="NJJ9FSpXdGlF9qKQExcH-20">
          <mxGeometry relative="1" as="geometry" />
        </mxCell>
        <mxCell id="NJJ9FSpXdGlF9qKQExcH-51" value="fonction" style="shape=ext;double=1;rounded=1;whiteSpace=wrap;html=1;fontSize=15;" vertex="1" parent="WIyWlLk6GJQsqaUBKTNV-1">
          <mxGeometry x="540" y="610" width="120" height="42" as="geometry" />
        </mxCell>
        <mxCell id="NJJ9FSpXdGlF9qKQExcH-52" value="" style="endArrow=none;html=1;rounded=0;fontSize=15;exitX=1;exitY=0.5;exitDx=0;exitDy=0;entryX=0;entryY=0.5;entryDx=0;entryDy=0;" edge="1" parent="WIyWlLk6GJQsqaUBKTNV-1" source="NJJ9FSpXdGlF9qKQExcH-40" target="NJJ9FSpXdGlF9qKQExcH-49">
          <mxGeometry width="50" height="50" relative="1" as="geometry">
            <mxPoint x="530" y="647" as="sourcePoint" />
            <mxPoint x="580" y="597" as="targetPoint" />
          </mxGeometry>
        </mxCell>
        <mxCell id="NJJ9FSpXdGlF9qKQExcH-62" value="" style="endArrow=none;html=1;rounded=0;fontSize=15;entryX=0.5;entryY=1;entryDx=0;entryDy=0;exitX=0;exitY=0.5;exitDx=0;exitDy=0;" edge="1" parent="WIyWlLk6GJQsqaUBKTNV-1" source="NJJ9FSpXdGlF9qKQExcH-37" target="NJJ9FSpXdGlF9qKQExcH-36">
          <mxGeometry width="50" height="50" relative="1" as="geometry">
            <mxPoint x="530" y="450" as="sourcePoint" />
            <mxPoint x="580" y="400" as="targetPoint" />
          </mxGeometry>
        </mxCell>
        <mxCell id="NJJ9FSpXdGlF9qKQExcH-66" style="edgeStyle=orthogonalEdgeStyle;rounded=0;orthogonalLoop=1;jettySize=auto;html=1;fontSize=15;startArrow=none;startFill=0;endArrow=none;endFill=0;" edge="1" parent="WIyWlLk6GJQsqaUBKTNV-1" source="NJJ9FSpXdGlF9qKQExcH-65" target="WIyWlLk6GJQsqaUBKTNV-3">
          <mxGeometry relative="1" as="geometry" />
        </mxCell>
        <mxCell id="NJJ9FSpXdGlF9qKQExcH-65" value="nom_depart" style="ellipse;whiteSpace=wrap;html=1;" vertex="1" parent="WIyWlLk6GJQsqaUBKTNV-1">
          <mxGeometry x="840" y="-5" width="120" height="50" as="geometry" />
        </mxCell>
        <mxCell id="NJJ9FSpXdGlF9qKQExcH-70" style="edgeStyle=orthogonalEdgeStyle;rounded=0;orthogonalLoop=1;jettySize=auto;html=1;entryX=1;entryY=0;entryDx=0;entryDy=0;fontSize=15;startArrow=none;startFill=0;endArrow=none;endFill=0;" edge="1" parent="WIyWlLk6GJQsqaUBKTNV-1" source="NJJ9FSpXdGlF9qKQExcH-68" target="NJJ9FSpXdGlF9qKQExcH-24">
          <mxGeometry relative="1" as="geometry" />
        </mxCell>
        <mxCell id="NJJ9FSpXdGlF9qKQExcH-68" value="nom_employe" style="ellipse;whiteSpace=wrap;html=1;" vertex="1" parent="WIyWlLk6GJQsqaUBKTNV-1">
          <mxGeometry x="240" y="120" width="120" height="50" as="geometry" />
        </mxCell>
        <mxCell id="NJJ9FSpXdGlF9qKQExcH-71" style="edgeStyle=orthogonalEdgeStyle;rounded=0;orthogonalLoop=1;jettySize=auto;html=1;exitX=0;exitY=0.5;exitDx=0;exitDy=0;entryX=1;entryY=1;entryDx=0;entryDy=0;fontSize=15;startArrow=none;startFill=0;endArrow=none;endFill=0;" edge="1" parent="WIyWlLk6GJQsqaUBKTNV-1" source="NJJ9FSpXdGlF9qKQExcH-69" target="NJJ9FSpXdGlF9qKQExcH-24">
          <mxGeometry relative="1" as="geometry" />
        </mxCell>
        <mxCell id="NJJ9FSpXdGlF9qKQExcH-69" value="&lt;u&gt;numero_employe&lt;/u&gt;" style="ellipse;whiteSpace=wrap;html=1;" vertex="1" parent="WIyWlLk6GJQsqaUBKTNV-1">
          <mxGeometry x="240" y="207" width="120" height="50" as="geometry" />
        </mxCell>
      </root>
    </mxGraphModel>
  </diagram>
</mxfile>
